<svg xmlns="http://www.w3.org/2000/svg" width="20.251" height="31.57" viewBox="0 0 20.251 31.57">
  <g id="noun_Profit_2085822" transform="translate(-7.672 -3.06)">
    <path id="Path_4" data-name="Path 4" d="M17.819,23.383h0a3.716,3.716,0,0,1,2.437.9,3.046,3.046,0,0,1,0,4.679,3.582,3.582,0,0,1-1.3.719v.755a1.133,1.133,0,1,1-2.266,0v-.755a3.582,3.582,0,0,1-1.3-.719,3.1,3.1,0,0,1-1.1-2.339,1.133,1.133,0,0,1,2.266,0,.841.841,0,0,0,.317.634,1.4,1.4,0,0,0,.926.341h0a1.4,1.4,0,0,0,.926-.341.841.841,0,0,0,.317-.634.865.865,0,0,0-.317-.646,1.462,1.462,0,0,0-.9-.329h0a3.655,3.655,0,0,1-2.437-.9,3.034,3.034,0,0,1,0-4.7,3.8,3.8,0,0,1,1.3-.731v-.755a1.133,1.133,0,1,1,2.266,0v.755a3.8,3.8,0,0,1,1.3.731,3.058,3.058,0,0,1,1.1,2.437,1.157,1.157,0,0,1-2.315,0,.865.865,0,0,0-.317-.646,1.4,1.4,0,0,0-.926-.329h0a1.4,1.4,0,0,0-.926.329.8.8,0,0,0,0,1.218,1.4,1.4,0,0,0,.926.329ZM18.952,6.849v4.874a1.133,1.133,0,1,1-2.266,0V6.849L15.467,8.068A1.133,1.133,0,0,1,13.822,6.52l3.192-3.2h0a1.072,1.072,0,0,1,.414-.256h.463a1.218,1.218,0,0,1,.719.329l3.2,3.131a1.109,1.109,0,0,1,0,1.6,1.133,1.133,0,0,1-1.6,0L19,6.9Zm-1.133,7.53a10.125,10.125,0,1,1-7.176,2.961,10.125,10.125,0,0,1,7.176-2.961Zm5.568,4.569A7.871,7.871,0,1,0,25.7,24.516a7.871,7.871,0,0,0-2.315-5.568Z" fill="#ff6f00"/>
  </g>
</svg>
