<svg xmlns="http://www.w3.org/2000/svg" width="20.251" height="31.57" viewBox="0 0 20.251 31.57">
  <g id="Group_132" data-name="Group 132" transform="translate(-8 -364.43)">
    <g id="noun_Profit_2085822" transform="translate(0.328 365.37)">
      <path id="Path_4" data-name="Path 4" d="M17.819,23.383h0a3.716,3.716,0,0,1,2.437.9,3.046,3.046,0,0,1,0,4.679,3.582,3.582,0,0,1-1.3.719v.755a1.133,1.133,0,1,1-2.266,0v-.755a3.582,3.582,0,0,1-1.3-.719,3.1,3.1,0,0,1-1.1-2.339,1.133,1.133,0,0,1,2.266,0,.841.841,0,0,0,.317.634,1.4,1.4,0,0,0,.926.341h0a1.4,1.4,0,0,0,.926-.341.841.841,0,0,0,.317-.634.865.865,0,0,0-.317-.646,1.462,1.462,0,0,0-.9-.329h0a3.655,3.655,0,0,1-2.437-.9,3.034,3.034,0,0,1,0-4.7,3.8,3.8,0,0,1,1.3-.731v-.755a1.133,1.133,0,1,1,2.266,0v.755a3.8,3.8,0,0,1,1.3.731,3.058,3.058,0,0,1,1.1,2.437,1.157,1.157,0,0,1-2.315,0,1.58,1.58,0,0,0-.317-.646,2.58,2.58,0,0,0-.926-.329h0a1.4,1.4,0,0,0-.926.329.8.8,0,0,0,0,1.218,1.4,1.4,0,0,0,.926.329ZM18.952,6.849v4.874a1.133,1.133,0,1,1-2.266,0V6.849L15.467,8.068A1.133,1.133,0,0,1,13.822,6.52l3.192-3.2h0a1.072,1.072,0,0,1,.414-.256h.463a1.218,1.218,0,0,1,.719.329l3.2,3.131a1.109,1.109,0,0,1,0,1.6,1.133,1.133,0,0,1-1.6,0L19,6.9Zm-1.133,7.53a10.125,10.125,0,1,1-7.176,2.961,10.125,10.125,0,0,1,7.176-2.961Zm4.335,16.058c-2.659-2.65,2.315.391-.8,2.482s-2.6-5.949-1.156-2.482-4.5,2.54-.82,1.8a8.364,8.364,0,0,0,2.378-.893c2.27-1.178-7.817,3.214-7.82.222,0-2.09,9.7.34,8.221-1.133Z" transform="translate(0 -4)" fill="#ff6f00"/>
    </g>
    <path id="Subtraction_10" data-name="Subtraction 10" d="M3.553-2279.49a1.135,1.135,0,0,1-1.133-1.134v-.755a3.546,3.546,0,0,1-1.3-.717,3.1,3.1,0,0,1-1.1-2.339,1.134,1.134,0,0,1,1.133-1.133,1.134,1.134,0,0,1,1.133,1.133.832.832,0,0,0,.317.632,1.4,1.4,0,0,0,.917.341h.016a1.4,1.4,0,0,0,.918-.341.838.838,0,0,0,.317-.632.863.863,0,0,0-.317-.648,1.47,1.47,0,0,0-.9-.328H3.52a3.656,3.656,0,0,1-2.4-.9A3.029,3.029,0,0,1,0-2288.666a3.023,3.023,0,0,1,1.117-2.351,3.752,3.752,0,0,1,1.3-.732v-.754a1.135,1.135,0,0,1,1.133-1.134,1.135,1.135,0,0,1,1.133,1.134v.754a3.831,3.831,0,0,1,1.3.732,3.042,3.042,0,0,1,1.1,2.437,1.158,1.158,0,0,1-1.157,1.156,1.158,1.158,0,0,1-1.157-1.156.861.861,0,0,0-.317-.646,1.4,1.4,0,0,0-.9-.33H3.5a1.4,1.4,0,0,0-.9.33.8.8,0,0,0-.28.608.813.813,0,0,0,.28.611,1.4,1.4,0,0,0,.9.328h.058a3.73,3.73,0,0,1,2.426.9,3.056,3.056,0,0,1,1.1,2.342,3.045,3.045,0,0,1-1.1,2.339,3.572,3.572,0,0,1-1.3.717v.755A1.135,1.135,0,0,1,3.553-2279.49Z" transform="translate(14.593 2672.431)" fill="#fff"/>
  </g>
</svg>
