<svg xmlns="http://www.w3.org/2000/svg" width="18.486" height="22.79" viewBox="0 0 18.486 22.79">
  <g id="noun_safe_1929833" transform="translate(-5.232 -15.258)">
    <g id="Group_117" data-name="Group 117" transform="translate(5.232 15.258)">
      <g id="Group_116" data-name="Group 116">
        <path id="Path_5" data-name="Path 5" d="M117.652,17.052l.821.163,1.96.39,2.382.472,2.059.408c.332.066.665.14,1,.2l.014,0-.674-.885V28.685c0,.2.009.41-.009.612,0,.037-.007.073-.014.11.011-.08.023-.163.032-.243a4.705,4.705,0,0,1-.339,1.181c.03-.073.062-.147.092-.22a7.781,7.781,0,0,1-1,1.669l.144-.186a12.363,12.363,0,0,1-2.236,2.183l.186-.144a21.039,21.039,0,0,1-3.384,2.091q-.623.313-1.259.6l.706-.092c-.2-.071-.392-.151-.587-.232l.22.092a20.167,20.167,0,0,1-3.148-1.669q-.557-.361-1.082-.768l.186.144a11.906,11.906,0,0,1-2.151-2.1l.144.186a8.01,8.01,0,0,1-1.048-1.763c.03.073.062.147.092.22a6.521,6.521,0,0,1-.4-1.311c.011.08.023.163.032.243V19.253c0-.463.009-.926,0-1.387v-.021l-.674.885c.277-.055.555-.11.835-.167l2.015-.4L115,17.677l2.1-.42c.342-.069.686-.128,1.027-.2l.014,0a.927.927,0,0,0,.548-.422.938.938,0,0,0,.092-.706.92.92,0,0,0-.422-.548,1.018,1.018,0,0,0-.706-.092c-.277.055-.555.11-.835.167l-2.015.4-2.428.484-2.1.42c-.342.069-.688.122-1.027.2a.029.029,0,0,1-.014,0l-.22.092a.671.671,0,0,0-.257.236.9.9,0,0,0-.2.555V28.86c0,.131,0,.264,0,.394a2.778,2.778,0,0,0,.1.594,6.551,6.551,0,0,0,.264.828,8.526,8.526,0,0,0,.9,1.72,11.171,11.171,0,0,0,1.22,1.488,15.6,15.6,0,0,0,2.749,2.2,20.2,20.2,0,0,0,2.373,1.3c.475.222.956.44,1.449.614.009,0,.021.007.03.011a1.376,1.376,0,0,0,.993-.22q.629-.289,1.245-.608a22.984,22.984,0,0,0,2.1-1.231,15.448,15.448,0,0,0,2.955-2.476,9.233,9.233,0,0,0,1.493-2.151,5.949,5.949,0,0,0,.537-1.555,4.047,4.047,0,0,0,.073-.686V17.8a.9.9,0,0,0-.2-.555.85.85,0,0,0-.477-.328l-.821-.163-1.96-.39-2.382-.472c-.679-.138-1.364-.275-2.052-.41-.332-.066-.665-.135-1-.2l-.014,0a.983.983,0,0,0-.706.092.917.917,0,0,0-.33,1.254A.91.91,0,0,0,117.652,17.052Z" transform="translate(-108.555 -15.258)" fill="#ff6f00"/>
        <path id="Path_6" data-name="Path 6" d="M286.621,306.1l.965.965,1.55,1.55.355.355a.932.932,0,0,0,1.3,0l.559-.559,1.353-1.353,1.628-1.628,1.417-1.417c.229-.229.463-.454.688-.688,0,0,.007-.007.009-.009a.918.918,0,1,0-1.3-1.3l-.559.56-1.353,1.353-1.628,1.628-1.417,1.417c-.229.229-.463.454-.688.688,0,0-.007.007-.009.009h1.3l-.965-.965-1.55-1.55-.355-.355a.918.918,0,1,0-1.3,1.3Z" transform="translate(-282.282 -295.19)" fill="#ff6f00"/>
      </g>
    </g>
  </g>
</svg>
