<svg xmlns="http://www.w3.org/2000/svg" width="18.485" height="22.79" viewBox="0 0 18.485 22.79">
  <g id="noun_safe_1929833" transform="translate(-5.232 -15.258)">
    <g id="Group_117" data-name="Group 117" transform="translate(5.232 15.258)">
      <g id="Group_116" data-name="Group 116">
        <path id="Union_4" data-name="Union 4" d="M.088-2822.427l-.03-.012c-.493-.175-.975-.392-1.45-.615a20.243,20.243,0,0,1-2.372-1.3,15.611,15.611,0,0,1-2.749-2.2,11.127,11.127,0,0,1-1.22-1.489,8.543,8.543,0,0,1-.9-1.719,6.693,6.693,0,0,1-.264-.828,2.748,2.748,0,0,1-.1-.594c0-.131,0-.264,0-.394V-2842.6a.9.9,0,0,1,.2-.554.67.67,0,0,1,.256-.237l.22-.091a.023.023,0,0,0,.014,0c.339-.083.686-.135,1.027-.2l2.1-.419c.809-.16,1.618-.323,2.428-.484.671-.132,1.344-.268,2.015-.4.28-.058.557-.113.834-.167l.066-.011a1.144,1.144,0,0,1,.425.011l.014,0c.332.062.665.13,1,.2.688.136,1.373.274,2.052.41.793.158,1.589.314,2.382.472l1.96.39.821.163a.849.849,0,0,1,.477.328.9.9,0,0,1,.2.555v11.285a4.078,4.078,0,0,1-.073.686,5.936,5.936,0,0,1-.537,1.554,9.243,9.243,0,0,1-1.492,2.151,15.459,15.459,0,0,1-2.956,2.476,22.962,22.962,0,0,1-2.1,1.231q-.616.32-1.245.608a1.948,1.948,0,0,1-.772.255A.709.709,0,0,1,.088-2822.427Z" transform="translate(9 2845.182)" fill="#ff6f00"/>
        <path id="Path_6" data-name="Path 6" d="M286.621,306.1l.965.965,1.55,1.55.355.355a.932.932,0,0,0,1.3,0l.559-.559,1.353-1.353,1.628-1.628,1.417-1.417c.229-.229.463-.454.688-.688,0,0,.007-.007.009-.009a.918.918,0,1,0-1.3-1.3l-.559.56-1.353,1.353-1.628,1.628-1.417,1.417c-.229.229-.463.454-.688.688,0,0-.007.007-.009.009h1.3l-.965-.965-1.55-1.55-.355-.355a.918.918,0,1,0-1.3,1.3Z" transform="translate(-282.282 -295.19)" fill="#fff"/>
      </g>
    </g>
  </g>
</svg>
